<svg width="85" height="73" viewBox="0 0 85 73" fill="none" xmlns="http://www.w3.org/2000/svg">
<rect y="30.3587" width="84.15" height="42.075" fill="url(#paint0_linear_2_26)"/>
<mask id="mask0_2_26" style="mask-type:luminance" maskUnits="userSpaceOnUse" x="0" y="30" width="85" height="43">
<rect y="30.3587" width="84.15" height="42.075" fill="white"/>
</mask>
<g mask="url(#mask0_2_26)">
<rect opacity="0.3" x="33.66" y="89.7617" width="96.7974" height="23.3031" transform="rotate(-30 33.66 89.7617)" fill="white"/>
<path d="M45.3115 49.4081C44.7753 49.4081 44.3406 48.9734 44.3406 48.4371C44.3406 47.9009 44.7753 47.4662 45.3115 47.4662H63.3437C63.8799 47.4662 64.3146 47.9009 64.3146 48.4371C64.3146 48.9734 63.8799 49.4081 63.3437 49.4081H45.3115Z" fill="white"/>
<path opacity="0.15" fill-rule="evenodd" clip-rule="evenodd" d="M0 30.3587H23.9504V73.081H0V30.3587Z" fill="#001D4B"/>
<path fill-rule="evenodd" clip-rule="evenodd" d="M-14.329 71.1391C-14.329 80.0766 -7.0838 87.3218 1.85365 87.3218C10.7911 87.3218 18.0363 80.0766 18.0363 71.1391C18.0363 62.2017 10.7911 54.9564 1.85365 54.9564C-7.0838 54.9564 -14.329 62.2017 -14.329 71.1391ZM11.5633 71.1391C11.5633 76.5016 7.21612 80.8487 1.85365 80.8487C-3.50882 80.8487 -7.85596 76.5016 -7.85596 71.1391C-7.85596 65.7766 -3.50882 61.4295 1.85365 61.4295C7.21612 61.4295 11.5633 65.7766 11.5633 71.1391Z" fill="#E0987C"/>
<path d="M0 38.9473V38.1823H84.15V38.9473H0Z" fill="#D33234"/>
</g>
<rect x="11.9" y="7.62939e-06" width="60.9396" height="30.4698" fill="url(#paint1_linear_2_26)"/>
<mask id="mask1_2_26" style="mask-type:luminance" maskUnits="userSpaceOnUse" x="11" y="0" width="62" height="31">
<rect x="11.9" y="7.62939e-06" width="60.9396" height="30.4698" fill="white"/>
</mask>
<g mask="url(#mask1_2_26)">
<path d="M44.0625 15.0452H59.7253" stroke="#0069D5" stroke-width="1.95319" stroke-linecap="round" stroke-linejoin="round"/>
<path opacity="0.12" fill-rule="evenodd" clip-rule="evenodd" d="M11.9 7.62939e-06H29.8954V30.9386H11.9V7.62939e-06Z" fill="#001D4B"/>
<path opacity="0.3" fill-rule="evenodd" clip-rule="evenodd" d="M16.3272 24.0243C17.0464 24.0243 17.6293 23.4413 17.6293 22.7221C17.6293 22.003 17.0464 21.42 16.3272 21.42C15.6081 21.42 15.0251 22.003 15.0251 22.7221C15.0251 23.4413 15.6081 24.0243 16.3272 24.0243ZM16.3272 27.9306C17.0464 27.9306 17.6293 27.3477 17.6293 26.6285C17.6293 25.9094 17.0464 25.3264 16.3272 25.3264C15.6081 25.3264 15.0251 25.9094 15.0251 26.6285C15.0251 27.3477 15.6081 27.9306 16.3272 27.9306ZM20.8847 27.9306C21.6038 27.9306 22.1868 27.3477 22.1868 26.6285C22.1868 25.9094 21.6038 25.3264 20.8847 25.3264C20.1655 25.3264 19.5825 25.9094 19.5825 26.6285C19.5825 27.3477 20.1655 27.9306 20.8847 27.9306ZM26.7442 26.6285C26.7442 27.3477 26.1613 27.9306 25.4421 27.9306C24.723 27.9306 24.14 27.3477 24.14 26.6285C24.14 25.9094 24.723 25.3264 25.4421 25.3264C26.1613 25.3264 26.7442 25.9094 26.7442 26.6285ZM22.1868 22.7221C22.1868 23.4413 21.6038 24.0243 20.8847 24.0243C20.1655 24.0243 19.5825 23.4413 19.5825 22.7221C19.5825 22.003 20.1655 21.42 20.8847 21.42C21.6038 21.42 22.1868 22.003 22.1868 22.7221ZM25.4421 24.0243C26.1613 24.0243 26.7442 23.4413 26.7442 22.7221C26.7442 22.003 26.1613 21.42 25.4421 21.42C24.723 21.42 24.14 22.003 24.14 22.7221C24.14 23.4413 24.723 24.0243 25.4421 24.0243Z" fill="white"/>
<path d="M11.9 6.8216V6.36586H72.8396V6.8216H11.9Z" fill="#0069D5"/>
</g>
<defs>
<linearGradient id="paint0_linear_2_26" x1="110.854" y1="50.5192" x2="57.9344" y2="-5.49581" gradientUnits="userSpaceOnUse">
<stop stop-color="#FFB966"/>
<stop offset="1" stop-color="#FF895F"/>
<stop offset="1" stop-color="#FF895F"/>
</linearGradient>
<linearGradient id="paint1_linear_2_26" x1="94.9658" y1="21.6998" x2="78.1602" y2="-12.1524" gradientUnits="userSpaceOnUse">
<stop stop-color="#85D4FF"/>
<stop offset="1" stop-color="#51A4FF"/>
</linearGradient>
</defs>
</svg>
