<svg width="53" height="91" viewBox="0 0 53 91" fill="none" xmlns="http://www.w3.org/2000/svg">
<path fill-rule="evenodd" clip-rule="evenodd" d="M30.8837 33.4829C28.7367 32.571 23.2365 30.8821 23.2365 22.8339C23.2365 14.7858 36.5642 -2.34861 44.0059 0.416357C51.4477 3.18132 48.2338 23.9732 44.0059 29.9083C39.7781 35.8435 33.0307 34.3947 30.8837 33.4829Z" fill="#C5DDF0"/>
<path d="M27.0028 72.279H26.4568C26.4568 46.0229 31.3047 24.678 41.0062 8.24746L41.4763 8.52507C31.8292 24.8635 27.0028 46.1139 27.0028 72.279Z" fill="#7297C4"/>
<path fill-rule="evenodd" clip-rule="evenodd" d="M20.1858 52.8204C23.72 51.3662 28.7658 45.5578 25.0965 37.2876C21.4271 29.0174 8.45053 18.6602 2.33534 23.9746C-3.77986 29.2889 3.61541 46.726 7.43008 50.8077C11.2447 54.8894 16.6516 54.2746 20.1858 52.8204Z" fill="#C5DDF0"/>
<path d="M22.7766 72.2804L22.2306 72.2776C22.314 55.7727 17.8699 42.5817 8.90222 32.6906L9.30672 32.3238C18.3719 42.3225 22.8606 55.646 22.7766 72.2804Z" fill="#7297C4"/>
<path fill-rule="evenodd" clip-rule="evenodd" d="M34.9931 58.0305C33.0086 56.5391 30.0484 54.5333 32.6441 47.8786C35.2399 41.2238 46.9103 34.6451 50.7932 38.3659C54.6761 42.0868 50.0735 54.8571 45.657 58.3285C41.2405 61.8 36.9776 59.5219 34.9931 58.0305Z" fill="#C5DDF0"/>
<path d="M31.798 72.3269L31.2605 72.2311C33.4501 59.9421 38.1919 50.1453 45.4874 42.8485L45.8735 43.2345C38.6614 50.4479 33.969 60.1428 31.798 72.3269Z" fill="#7297C4"/>
<path fill-rule="evenodd" clip-rule="evenodd" d="M12.7349 68.9288H42.1029V80.7583C42.1029 85.9277 37.9123 90.1183 32.7429 90.1183H22.0949C16.9255 90.1183 12.7349 85.9277 12.7349 80.7583V68.9288Z" fill="url(#paint0_linear_2_9)"/>
<mask id="mask0_2_9" style="mask-type:luminance" maskUnits="userSpaceOnUse" x="12" y="68" width="31" height="23">
<path fill-rule="evenodd" clip-rule="evenodd" d="M12.7349 68.9288H42.1029V80.7583C42.1029 85.9277 37.9123 90.1183 32.7429 90.1183H22.0949C16.9255 90.1183 12.7349 85.9277 12.7349 80.7583V68.9288Z" fill="white"/>
</mask>
<g mask="url(#mask0_2_9)">
<path d="M11.5408 73.2739V72.7279H42.7808V73.2739H11.5408Z" fill="#7297C4"/>
<path d="M11.5408 76.9183V76.3723H42.7808V76.9183H11.5408Z" fill="#7297C4"/>
</g>
<defs>
<linearGradient id="paint0_linear_2_9" x1="13.4169" y1="53.8452" x2="-13.3801" y2="100.137" gradientUnits="userSpaceOnUse">
<stop stop-color="#CBDDEE"/>
<stop offset="1" stop-color="#B8D0E6"/>
<stop offset="1" stop-color="#B8D0E6"/>
</linearGradient>
</defs>
</svg>
