<svg width="510" height="60" viewBox="0 0 510 60" fill="none" xmlns="http://www.w3.org/2000/svg">
<path opacity="0.2" fill-rule="evenodd" clip-rule="evenodd" d="M0 25H16V60H0V25Z" fill="#157AFF"/>
<path opacity="0.2" fill-rule="evenodd" clip-rule="evenodd" d="M22 8H38V60H22V8Z" fill="#157AFF"/>
<path opacity="0.2" fill-rule="evenodd" clip-rule="evenodd" d="M45 16H61V60H45V16Z" fill="#157AFF"/>
<path opacity="0.2" fill-rule="evenodd" clip-rule="evenodd" d="M90 25H106V60H90V25Z" fill="#157AFF"/>
<path opacity="0.2" fill-rule="evenodd" clip-rule="evenodd" d="M112 30H128V60H112V30Z" fill="#157AFF"/>
<path opacity="0.2" fill-rule="evenodd" clip-rule="evenodd" d="M135 16H151V60H135V16Z" fill="#157AFF"/>
<path opacity="0.2" fill-rule="evenodd" clip-rule="evenodd" d="M157 33H173V60H157V33Z" fill="#157AFF"/>
<path opacity="0.2" fill-rule="evenodd" clip-rule="evenodd" d="M67 33H83V60H67V33Z" fill="#157AFF"/>
<path opacity="0.2" fill-rule="evenodd" clip-rule="evenodd" d="M180 25H196V60H180V25Z" fill="#157AFF"/>
<path opacity="0.2" fill-rule="evenodd" clip-rule="evenodd" d="M202 8H218V60H202V8Z" fill="#157AFF"/>
<path opacity="0.2" fill-rule="evenodd" clip-rule="evenodd" d="M225 16H241V60H225V16Z" fill="#157AFF"/>
<path opacity="0.2" fill-rule="evenodd" clip-rule="evenodd" d="M269 25H285V60H269V25Z" fill="#157AFF"/>
<path opacity="0.2" fill-rule="evenodd" clip-rule="evenodd" d="M292 30H308V60H292V30Z" fill="#157AFF"/>
<path opacity="0.2" fill-rule="evenodd" clip-rule="evenodd" d="M314 16H330V60H314V16Z" fill="#157AFF"/>
<path opacity="0.2" fill-rule="evenodd" clip-rule="evenodd" d="M337 33H353V60H337V33Z" fill="#157AFF"/>
<path opacity="0.2" fill-rule="evenodd" clip-rule="evenodd" d="M247 33H263V60H247V33Z" fill="#157AFF"/>
<path opacity="0.2" fill-rule="evenodd" clip-rule="evenodd" d="M359 25H375V60H359V25Z" fill="#157AFF"/>
<path opacity="0.2" fill-rule="evenodd" clip-rule="evenodd" d="M382 8H398V60H382V8Z" fill="#157AFF"/>
<path opacity="0.2" fill-rule="evenodd" clip-rule="evenodd" d="M404 16H420V60H404V16Z" fill="#157AFF"/>
<path opacity="0.2" fill-rule="evenodd" clip-rule="evenodd" d="M449 25H465V60H449V25Z" fill="#157AFF"/>
<path fill-rule="evenodd" clip-rule="evenodd" d="M472 0H488V60H472V0Z" fill="#157AFF"/>
<path opacity="0.2" fill-rule="evenodd" clip-rule="evenodd" d="M494 16H510V60H494V16Z" fill="#157AFF"/>
<path opacity="0.2" fill-rule="evenodd" clip-rule="evenodd" d="M427 33H443V60H427V33Z" fill="#157AFF"/>
</svg>
